<svg xmlns="http://www.w3.org/2000/svg" viewBox="0 0 42.31 50"><defs><style>.cls-1{fill:#489fdf;}</style></defs><title>logo-simple</title><g id="Layer_2" data-name="Layer 2"><g id="Art"><g id="Top_Nav_Bar_2" data-name="Top Nav Bar 2"><g id="_Group_" data-name="&lt;Group&gt;"><path id="_Compound_Path_" data-name="&lt;Compound Path&gt;" class="cls-1" d="M27.56,48.14h-.63v-.23h1.54v.23h-.64V50h-.27Z"/><path id="_Compound_Path_2" data-name="&lt;Compound Path&gt;" class="cls-1" d="M30.45,49.09c0-.29,0-.64,0-.9h0c-.07.24-.16.51-.26.79l-.37,1h-.2l-.34-1c-.1-.29-.18-.56-.24-.81h0c0,.26,0,.61,0,.92L28.9,50h-.26l.14-2.09h.34l.36,1c.09.26.16.48.21.7h0c.05-.21.13-.44.22-.7l.37-1h.34L30.77,50h-.26Z"/><path id="_Path_" data-name="&lt;Path&gt;" class="cls-1" d="M42.31,21.15A21.15,21.15,0,1,0,15.38,41.5V33.3A13.45,13.45,0,1,1,25,34V25l-7.69-7.69V50H25V42A21.16,21.16,0,0,0,42.31,21.15Z"/></g></g></g></g></svg>