<svg xmlns="http://www.w3.org/2000/svg" viewBox="0 0 205 77.02"><defs><style>.cls-1{fill:#fff;}</style></defs><title>logo-white</title><g id="Layer_2" data-name="Layer 2"><g id="Layer_1-2" data-name="Layer 1"><g id="_Group_" data-name="&lt;Group&gt;"><path id="_Compound_Path_" data-name="&lt;Compound Path&gt;" class="cls-1" d="M42.45,74.16h-1v-.35h2.38v.35h-1V77h-.42Z"/><path id="_Compound_Path_2" data-name="&lt;Compound Path&gt;" class="cls-1" d="M46.91,75.61c0-.45-.05-1,0-1.39h0c-.11.37-.24.78-.4,1.22L45.88,77h-.31L45,75.47c-.15-.45-.28-.87-.37-1.25h0c0,.4,0,.94-.06,1.42L44.52,77h-.39l.22-3.21h.53l.55,1.56c.13.39.24.75.32,1.08h0c.08-.33.2-.68.34-1.08l.57-1.56h.53L47.4,77H47Z"/><path id="_Compound_Path_3" data-name="&lt;Compound Path&gt;" class="cls-1" d="M91,24.15c4,0,4.39,5.71,4.39,8.56s-.3,8.22-4.39,8.22-4.39-5.41-4.39-8.22S87,24.15,91,24.15Zm0-6.6c-8.9,0-14,6.39-14,15.12C77,41,82.13,47.62,91,47.62S105,41,105,32.67C105,23.94,99.9,17.55,91,17.55Z"/><path id="_Compound_Path_4" data-name="&lt;Compound Path&gt;" class="cls-1" d="M178.73,47.2h-9V18h9Z"/><polygon id="_Path_" data-name="&lt;Path&gt;" class="cls-1" points="113.95 17.98 106.28 17.98 106.28 29.34 113.95 21.66 113.95 17.98"/><polygon id="_Path_2" data-name="&lt;Path&gt;" class="cls-1" points="205 40.04 191.4 40.04 191.4 17.98 182.38 17.98 182.38 47.2 197.91 47.2 205 40.04"/><polygon id="_Path_3" data-name="&lt;Path&gt;" class="cls-1" points="153.5 35.68 162.03 35.68 162.03 29.24 153.5 29.24 153.5 24.7 166.66 24.7 166.66 17.98 144.72 17.98 144.72 47.2 166.66 47.2 166.66 40.21 153.5 40.21 153.5 35.68"/><path id="_Path_4" data-name="&lt;Path&gt;" class="cls-1" d="M65.17,32.59A32.59,32.59,0,1,0,23.7,63.94V51.29a20.71,20.71,0,1,1,14.81,1.16V38.51L26.66,26.66V77H38.51V64.63A32.59,32.59,0,0,0,65.17,32.59Z"/><polygon id="_Path_5" data-name="&lt;Path&gt;" class="cls-1" points="133.77 17.98 133.77 33.37 124.53 17.98 116.05 17.98 116.05 47.2 123.33 47.2 123.33 30.26 133.73 47.2 141.05 47.2 141.05 17.98 133.77 17.98"/><polygon id="_Path_6" data-name="&lt;Path&gt;" class="cls-1" points="111.49 60.15 114.3 60.15 114.3 58.03 111.49 58.03 111.49 56.54 115.82 56.54 115.82 54.32 108.6 54.32 108.6 63.93 115.82 63.93 115.82 61.64 111.49 61.64 111.49 60.15"/><polygon id="_Path_7" data-name="&lt;Path&gt;" class="cls-1" points="176.34 60.15 179.15 60.15 179.15 58.03 176.34 58.03 176.34 56.54 180.67 56.54 180.67 54.32 173.46 54.32 173.46 63.93 180.67 63.93 180.67 61.64 176.34 61.64 176.34 60.15"/><path id="_Compound_Path_5" data-name="&lt;Compound Path&gt;" class="cls-1" d="M88.66,63.94H85.91V57.07h0l-1.75,6.87H82.26l-1.81-6.87h0v6.87H78.21V54.32h3.85l1.37,5.1h0l1.32-5.1h3.88Z"/><path id="_Compound_Path_6" data-name="&lt;Compound Path&gt;" class="cls-1" d="M94.91,62H92.35l-.59,1.89h-2.4l3-9.61h3.11l3,9.61h-3Zm-.5-2.1-.79-2.79-.78,2.79Z"/><path id="_Compound_Path_7" data-name="&lt;Compound Path&gt;" class="cls-1" d="M99.23,54.32h3.54a4.57,4.57,0,0,1,3.53,1.18,4.91,4.91,0,0,1,1.47,3.64,5.07,5.07,0,0,1-1.33,3.49,4.51,4.51,0,0,1-3.47,1.3H99.23Zm3.38,7.4a1.79,1.79,0,0,0,1-.17,1.7,1.7,0,0,0,.63-.63,3.88,3.88,0,0,0-.14-3.87c-.46-.57-.91-.55-1.58-.55h-.34v5.21Z"/><path id="_Compound_Path_8" data-name="&lt;Compound Path&gt;" class="cls-1" d="M124,63.94h-2.8v-7.3h-2V54.32H126v2.31h-2Z"/><path id="_Compound_Path_9" data-name="&lt;Compound Path&gt;" class="cls-1" d="M135.59,59.16c0,2.73-1.68,4.92-4.6,4.92s-4.6-2.19-4.6-4.92,1.67-5,4.6-5S135.59,56.29,135.59,59.16Zm-6,0c0,.92.1,2.7,1.44,2.7s1.44-1.78,1.44-2.7-.14-2.82-1.44-2.82S129.55,58.23,129.55,59.17Z"/><path id="_Compound_Path_10" data-name="&lt;Compound Path&gt;" class="cls-1" d="M141.67,63.94h-3V54.32h3Z"/><path id="_Compound_Path_11" data-name="&lt;Compound Path&gt;" class="cls-1" d="M153.58,63.94h-2.75V57.07h0l-1.75,6.87h-1.88l-1.81-6.87h0v6.87h-2.21V54.32H147l1.37,5.1h0l1.32-5.1h3.88Z"/><path id="_Compound_Path_12" data-name="&lt;Compound Path&gt;" class="cls-1" d="M158,63.94h-3V54.32H159a5.67,5.67,0,0,1,2.82.5,2.91,2.91,0,0,1,1.43,2.52,3,3,0,0,1-1.07,2.35,4,4,0,0,1-2.62.74H158Zm.77-5.55c.67,0,1.49,0,1.49-.94s-.73-.92-1.4-.92H158v1.86Z"/><path id="_Compound_Path_13" data-name="&lt;Compound Path&gt;" class="cls-1" d="M169.34,63.94l-1.4-3.67H167v3.67h-3V54.32h4.89a4.48,4.48,0,0,1,2.48.59,2.61,2.61,0,0,1,1.18,2.3,2.54,2.54,0,0,1-1.7,2.54l1.74,4.19Zm-1.25-5.73c.64,0,1.41-.1,1.41-.92a.88.88,0,0,0-.46-.78,1.89,1.89,0,0,0-.84-.13H167V58.2Z"/><path id="_Path_8" data-name="&lt;Path&gt;" class="cls-1" d="M188.08,58.49a10.2,10.2,0,0,0-2.69-.87c-.36-.1-1.06-.22-1-.73s.58-.59,1-.58a3.17,3.17,0,0,1,2.27,1.12l1.6-1.55a4.93,4.93,0,0,0-3.65-1.69,4.86,4.86,0,0,0-2.79.62,3,3,0,0,0-1.32,2.36c-.09,2.28,2,2.85,3.83,3.27.43.1,1.17.24,1.15.83s-.78.56-1.16.55a2.61,2.61,0,0,1-2.1-1.14l-1.88,1.84A4.64,4.64,0,0,0,185,64.07c2,0,4.32-.76,4.41-3.07A2.68,2.68,0,0,0,188.08,58.49Z"/><path id="_Path_9" data-name="&lt;Path&gt;" class="cls-1" d="M196.55,58.49a10.2,10.2,0,0,0-2.69-.87c-.36-.1-1.06-.22-1-.73s.58-.59,1-.58a3.17,3.17,0,0,1,2.27,1.12l1.6-1.55A4.93,4.93,0,0,0,194,54.19a4.86,4.86,0,0,0-2.79.62,3,3,0,0,0-1.32,2.36c-.09,2.28,2,2.85,3.83,3.27.43.1,1.17.24,1.15.83s-.78.56-1.16.55a2.61,2.61,0,0,1-2.1-1.14l-1.88,1.84a4.64,4.64,0,0,0,3.74,1.55c2,0,4.32-.76,4.41-3.07A2.68,2.68,0,0,0,196.55,58.49Z"/></g></g></g></svg>