<svg xmlns="http://www.w3.org/2000/svg" viewBox="0 0 226.23 85"><defs><style>.cls-1{fill:#4d9ed7}.cls-2{fill:#888b8d}</style></defs><title>logo</title><g id="Layer_2" data-name="Layer 2"><g id="Layer_1-2" data-name="Layer 1"><g id="_Group_" data-name="&amp;lt;Group&amp;gt;"><path id="_Compound_Path_" data-name="&amp;lt;Compound Path&amp;gt;" class="cls-1" d="M46.85 81.84h-1.08v-.39h2.62v.39h-1.08V85h-.46z"/><path id="_Compound_Path_2" data-name="&amp;lt;Compound Path&amp;gt;" class="cls-1" d="M51.77 83.45c0-.5-.06-1.09-.05-1.53-.12.41-.27.86-.45 1.35L50.63 85h-.35l-.57-1.69c-.17-.5-.31-1-.41-1.38 0 .44 0 1-.07 1.57l-.1 1.5h-.44l.25-3.54h.58l.6 1.72c.15.44.27.82.36 1.19.09-.36.22-.75.37-1.19l.63-1.72h.58l.25 3.54h-.45z"/><path id="_Compound_Path_3" data-name="&amp;lt;Compound Path&amp;gt;" d="M100.42 26.65c4.37 0 4.84 6.3 4.84 9.45s-.33 9.07-4.84 9.07-4.84-6-4.84-9.07.42-9.45 4.84-9.45zm0-7.29C90.59 19.37 85 26.42 85 36.06c0 9.17 5.64 16.5 15.42 16.5s15.42-7.33 15.42-16.5c0-9.64-5.6-16.69-15.42-16.69z"/><path id="_Compound_Path_4" data-name="&amp;lt;Compound Path&amp;gt;" d="M197.24 52.09h-10V19.84h10z"/><path id="_Path_" data-name="&amp;lt;Path&amp;gt;" d="M125.75 19.84h-8.47v12.54l8.47-8.47v-4.07z"/><path id="_Path_2" data-name="&amp;lt;Path&amp;gt;" d="M226.23 44.19h-15V19.84h-9.97v32.25h17.15l7.82-7.9z"/><path id="_Path_3" data-name="&amp;lt;Path&amp;gt;" d="M169.4 39.37h9.41v-7.1h-9.41v-5.01h14.52v-7.42h-24.21v32.25h24.21v-7.71H169.4v-5.01z"/><path id="_Path_4" data-name="&amp;lt;Path&amp;gt;" class="cls-1" d="M71.92 36a36 36 0 1 0-45.77 34.6v-14a22.86 22.86 0 1 1 16.35 1.28V42.5L29.42 29.43V85H42.5V71.32A36 36 0 0 0 71.92 36z"/><path id="_Path_5" data-name="&amp;lt;Path&amp;gt;" d="M147.63 19.84v16.99l-10.21-16.99h-9.36v32.25h8.05V33.4l11.47 18.69h8.08V19.84h-8.03z"/><path id="_Path_6" data-name="&amp;lt;Path&amp;gt;" class="cls-2" d="M123.04 66.37h3.09v-2.33h-3.09v-1.65h4.77v-2.44h-7.96v10.61h7.96v-2.54h-4.77v-1.65z"/><path id="_Path_7" data-name="&amp;lt;Path&amp;gt;" class="cls-1" d="M194.61 66.37h3.09v-2.33h-3.09v-1.65h4.77v-2.44h-7.96v10.61h7.96v-2.54h-4.77v-1.65z"/><path id="_Compound_Path_5" data-name="&amp;lt;Compound Path&amp;gt;" class="cls-2" d="M97.84 70.56h-3V63l-1.93 7.58h-2.13l-2-7.58v7.58h-2.47V60h4.25l1.52 5.63L93.56 60h4.28z"/><path id="_Compound_Path_6" data-name="&amp;lt;Compound Path&amp;gt;" class="cls-2" d="M104.74 68.47h-2.83l-.65 2.09h-2.64L101.91 60h3.43l3.32 10.61h-3.32zm-.56-2.32l-.87-3.08-.87 3.08z"/><path id="_Compound_Path_7" data-name="&amp;lt;Compound Path&amp;gt;" class="cls-2" d="M109.51 60h3.91a5 5 0 0 1 3.9 1.3 5.42 5.42 0 0 1 1.62 4 5.6 5.6 0 0 1-1.47 3.85 5 5 0 0 1-3.83 1.44h-4.13zm3.73 8.16a2 2 0 0 0 1.11-.19 1.87 1.87 0 0 0 .7-.7 4.28 4.28 0 0 0-.15-4.27c-.51-.63-1-.6-1.75-.6h-.37v5.75z"/><path id="_Compound_Path_8" data-name="&amp;lt;Compound Path&amp;gt;" class="cls-2" d="M136.89 70.56h-3.09V62.5h-2.23V60h7.5v2.5h-2.18z"/><path id="_Compound_Path_9" data-name="&amp;lt;Compound Path&amp;gt;" class="cls-2" d="M149.63 65.29c0 3-1.86 5.43-5.07 5.43s-5.07-2.41-5.07-5.43c0-3.17 1.84-5.49 5.07-5.49s5.07 2.31 5.07 5.49zm-6.66 0c0 1 .11 3 1.59 3s1.59-2 1.59-3-.15-3.11-1.59-3.11S143 64.26 143 65.3z"/><path id="_Compound_Path_10" data-name="&amp;lt;Compound Path&amp;gt;" class="cls-2" d="M156.35 70.56h-3.28V60h3.28z"/><path id="_Compound_Path_11" data-name="&amp;lt;Compound Path&amp;gt;" class="cls-2" d="M169.49 70.56h-3V63l-1.93 7.58h-2.07l-2-7.58v7.58H158V60h4.25l1.52 5.63 1.44-5.63h4.28z"/><path id="_Compound_Path_12" data-name="&amp;lt;Compound Path&amp;gt;" class="cls-1" d="M174.39 70.56h-3.29V60h4.33a6.26 6.26 0 0 1 3.11.56 3.22 3.22 0 0 1 1.58 2.78 3.27 3.27 0 0 1-1.18 2.6 4.47 4.47 0 0 1-2.89.82h-1.65zm.85-6.12c.74 0 1.64 0 1.64-1s-.8-1-1.55-1h-.94v2.06z"/><path id="_Compound_Path_13" data-name="&amp;lt;Compound Path&amp;gt;" class="cls-1" d="M186.88 70.56l-1.55-4.05h-1v4.05H181V60h5.4a5 5 0 0 1 2.74.65 2.88 2.88 0 0 1 1.3 2.53 2.8 2.8 0 0 1-1.87 2.8l1.92 4.62zm-1.38-6.32c.71 0 1.56-.11 1.56-1a1 1 0 0 0-.51-.87 2.09 2.09 0 0 0-.93-.14h-1.31v2z"/><path id="_Path_8" data-name="&amp;lt;Path&amp;gt;" class="cls-1" d="M207.56 64.55a11.26 11.26 0 0 0-3-1c-.4-.11-1.17-.25-1.15-.8s.64-.66 1.08-.64a3.5 3.5 0 0 1 2.5 1.23l1.76-1.71a5.44 5.44 0 0 0-4-1.87 5.36 5.36 0 0 0-3.07.69 3.29 3.29 0 0 0-1.46 2.61c-.1 2.52 2.25 3.15 4.23 3.61.48.11 1.29.26 1.27.91s-.86.62-1.28.6a2.88 2.88 0 0 1-2.32-1.18L200 69a5.12 5.12 0 0 0 4.13 1.71c2.2 0 4.77-.84 4.86-3.39a3 3 0 0 0-1.43-2.77z"/><path id="_Path_9" data-name="&amp;lt;Path&amp;gt;" class="cls-1" d="M216.91 64.55a11.26 11.26 0 0 0-3-1c-.4-.11-1.17-.25-1.15-.8s.64-.66 1.08-.64a3.5 3.5 0 0 1 2.5 1.23l1.76-1.71a5.44 5.44 0 0 0-4-1.87 5.36 5.36 0 0 0-3.07.69 3.29 3.29 0 0 0-1.46 2.61c-.1 2.52 2.25 3.15 4.23 3.61.48.11 1.29.26 1.27.91s-.86.62-1.28.6a2.88 2.88 0 0 1-2.32-1.18l-2.08 2a5.12 5.12 0 0 0 4.13 1.71c2.2 0 4.77-.84 4.86-3.39a3 3 0 0 0-1.47-2.77z"/></g></g></g></svg>