<svg xmlns="http://www.w3.org/2000/svg" viewBox="0 0 226.23 85"><defs><style>.cls-1{fill:#4d9ed7;}.cls-2{fill:#888b8d;}</style></defs><title>logo</title><g id="Layer_2" data-name="Layer 2"><g id="Layer_1-2" data-name="Layer 1"><g id="_Group_" data-name="&lt;Group&gt;"><path id="_Compound_Path_" data-name="&lt;Compound Path&gt;" class="cls-1" d="M46.85,81.84H45.77v-.39h2.62v.39H47.31V85h-.46Z"/><path id="_Compound_Path_2" data-name="&lt;Compound Path&gt;" class="cls-1" d="M51.77,83.45c0-.5-.06-1.09-.05-1.53h0c-.12.41-.27.86-.45,1.35L50.63,85h-.35l-.57-1.69c-.17-.5-.31-1-.41-1.38h0c0,.44,0,1-.07,1.57L49.13,85h-.44l.25-3.54h.58l.6,1.72c.15.44.27.82.36,1.19h0c.09-.36.22-.75.37-1.19l.63-1.72h.58L52.31,85h-.45Z"/><path id="_Compound_Path_3" data-name="&lt;Compound Path&gt;" d="M100.42,26.65c4.37,0,4.84,6.3,4.84,9.45s-.33,9.07-4.84,9.07-4.84-6-4.84-9.07S96,26.65,100.42,26.65Zm0-7.29C90.59,19.37,85,26.42,85,36.06c0,9.17,5.64,16.5,15.42,16.5s15.42-7.33,15.42-16.5C115.84,26.42,110.24,19.37,100.42,19.37Z"/><path id="_Compound_Path_4" data-name="&lt;Compound Path&gt;" d="M197.24,52.09h-10V19.84h10Z"/><polygon id="_Path_" data-name="&lt;Path&gt;" points="125.75 19.84 117.28 19.84 117.28 32.38 125.75 23.91 125.75 19.84"/><polygon id="_Path_2" data-name="&lt;Path&gt;" points="226.23 44.19 211.23 44.19 211.23 19.84 201.26 19.84 201.26 52.09 218.41 52.09 226.23 44.19"/><polygon id="_Path_3" data-name="&lt;Path&gt;" points="169.4 39.37 178.81 39.37 178.81 32.27 169.4 32.27 169.4 27.26 183.92 27.26 183.92 19.84 159.71 19.84 159.71 52.09 183.92 52.09 183.92 44.38 169.4 44.38 169.4 39.37"/><path id="_Path_4" data-name="&lt;Path&gt;" class="cls-1" d="M71.92,36a36,36,0,1,0-45.77,34.6v-14A22.86,22.86,0,1,1,42.5,57.88V42.5L29.42,29.43V85H42.5V71.32A36,36,0,0,0,71.92,36Z"/><polygon id="_Path_5" data-name="&lt;Path&gt;" points="147.63 19.84 147.63 36.83 137.42 19.84 128.06 19.84 128.06 52.09 136.11 52.09 136.11 33.4 147.58 52.09 155.66 52.09 155.66 19.84 147.63 19.84"/><polygon id="_Path_6" data-name="&lt;Path&gt;" class="cls-2" points="123.04 66.37 126.13 66.37 126.13 64.04 123.04 64.04 123.04 62.39 127.81 62.39 127.81 59.95 119.85 59.95 119.85 70.56 127.81 70.56 127.81 68.02 123.04 68.02 123.04 66.37"/><polygon id="_Path_7" data-name="&lt;Path&gt;" class="cls-1" points="194.61 66.37 197.7 66.37 197.7 64.04 194.61 64.04 194.61 62.39 199.38 62.39 199.38 59.95 191.42 59.95 191.42 70.56 199.38 70.56 199.38 68.02 194.61 68.02 194.61 66.37"/><path id="_Compound_Path_5" data-name="&lt;Compound Path&gt;" class="cls-2" d="M97.84,70.56h-3V63h0l-1.93,7.58H90.78l-2-7.58h0v7.58H86.31V60h4.25l1.52,5.63h0L93.56,60h4.28Z"/><path id="_Compound_Path_6" data-name="&lt;Compound Path&gt;" class="cls-2" d="M104.74,68.47h-2.83l-.65,2.09H98.62L101.91,60h3.43l3.32,10.61h-3.32Zm-.56-2.32-.87-3.08-.87,3.08Z"/><path id="_Compound_Path_7" data-name="&lt;Compound Path&gt;" class="cls-2" d="M109.51,60h3.91a5,5,0,0,1,3.9,1.3,5.42,5.42,0,0,1,1.62,4,5.6,5.6,0,0,1-1.47,3.85,5,5,0,0,1-3.83,1.44h-4.13Zm3.73,8.16a2,2,0,0,0,1.11-.19,1.87,1.87,0,0,0,.7-.7,4.28,4.28,0,0,0-.15-4.27c-.51-.63-1-.6-1.75-.6h-.37v5.75Z"/><path id="_Compound_Path_8" data-name="&lt;Compound Path&gt;" class="cls-2" d="M136.89,70.56H133.8V62.5h-2.23V60h7.5V62.5h-2.18Z"/><path id="_Compound_Path_9" data-name="&lt;Compound Path&gt;" class="cls-2" d="M149.63,65.29c0,3-1.86,5.43-5.07,5.43s-5.07-2.41-5.07-5.43c0-3.17,1.84-5.49,5.07-5.49S149.63,62.11,149.63,65.29Zm-6.66,0c0,1,.11,3,1.59,3s1.59-2,1.59-3-.15-3.11-1.59-3.11S143,64.26,143,65.3Z"/><path id="_Compound_Path_10" data-name="&lt;Compound Path&gt;" class="cls-2" d="M156.35,70.56h-3.28V60h3.28Z"/><path id="_Compound_Path_11" data-name="&lt;Compound Path&gt;" class="cls-2" d="M169.49,70.56h-3V63h0l-1.93,7.58h-2.07l-2-7.58h0v7.58H158V60h4.25l1.52,5.63h0L165.21,60h4.28Z"/><path id="_Compound_Path_12" data-name="&lt;Compound Path&gt;" class="cls-1" d="M174.39,70.56H171.1V60h4.33a6.26,6.26,0,0,1,3.11.56,3.22,3.22,0,0,1,1.58,2.78,3.27,3.27,0,0,1-1.18,2.6,4.47,4.47,0,0,1-2.89.82h-1.65Zm.85-6.12c.74,0,1.64,0,1.64-1s-.8-1-1.55-1h-.94v2.06Z"/><path id="_Compound_Path_13" data-name="&lt;Compound Path&gt;" class="cls-1" d="M186.88,70.56l-1.55-4.05h-1v4.05H181V60h5.4a5,5,0,0,1,2.74.65,2.88,2.88,0,0,1,1.3,2.53,2.8,2.8,0,0,1-1.87,2.8l1.92,4.62Zm-1.38-6.32c.71,0,1.56-.11,1.56-1a1,1,0,0,0-.51-.87,2.09,2.09,0,0,0-.93-.14h-1.31v2Z"/><path id="_Path_8" data-name="&lt;Path&gt;" class="cls-1" d="M207.56,64.55a11.26,11.26,0,0,0-3-1c-.4-.11-1.17-.25-1.15-.8s.64-.66,1.08-.64a3.5,3.5,0,0,1,2.5,1.23l1.76-1.71a5.44,5.44,0,0,0-4-1.87,5.36,5.36,0,0,0-3.07.69,3.29,3.29,0,0,0-1.46,2.61c-.1,2.52,2.25,3.15,4.23,3.61.48.11,1.29.26,1.27.91s-.86.62-1.28.6A2.88,2.88,0,0,1,202.12,67L200,69a5.12,5.12,0,0,0,4.13,1.71c2.2,0,4.77-.84,4.86-3.39A3,3,0,0,0,207.56,64.55Z"/><path id="_Path_9" data-name="&lt;Path&gt;" class="cls-1" d="M216.91,64.55a11.26,11.26,0,0,0-3-1c-.4-.11-1.17-.25-1.15-.8s.64-.66,1.08-.64a3.5,3.5,0,0,1,2.5,1.23l1.76-1.71a5.44,5.44,0,0,0-4-1.87,5.36,5.36,0,0,0-3.07.69,3.29,3.29,0,0,0-1.46,2.61c-.1,2.52,2.25,3.15,4.23,3.61.48.11,1.29.26,1.27.91s-.86.62-1.28.6A2.88,2.88,0,0,1,211.47,67l-2.08,2a5.12,5.12,0,0,0,4.13,1.71c2.2,0,4.77-.84,4.86-3.39A3,3,0,0,0,216.91,64.55Z"/></g></g></g></svg>