<svg xmlns="http://www.w3.org/2000/svg" viewBox="0 0 205 77.02"><defs><style>.cls-1{fill:#fff}</style></defs><title>logo-white</title><g id="Layer_2" data-name="Layer 2"><g id="Layer_1-2" data-name="Layer 1"><g id="_Group_" data-name="&amp;lt;Group&amp;gt;"><path id="_Compound_Path_" data-name="&amp;lt;Compound Path&amp;gt;" class="cls-1" d="M42.45 74.16h-1v-.35h2.38v.35h-1V77h-.42z"/><path id="_Compound_Path_2" data-name="&amp;lt;Compound Path&amp;gt;" class="cls-1" d="M46.91 75.61c0-.45-.05-1 0-1.39-.11.37-.24.78-.4 1.22L45.88 77h-.31L45 75.47c-.15-.45-.28-.87-.37-1.25 0 .4 0 .94-.06 1.42L44.52 77h-.39l.22-3.21h.53l.55 1.56c.13.39.24.75.32 1.08.08-.33.2-.68.34-1.08l.57-1.56h.53L47.4 77H47z"/><path id="_Compound_Path_3" data-name="&amp;lt;Compound Path&amp;gt;" class="cls-1" d="M91 24.15c4 0 4.39 5.71 4.39 8.56s-.3 8.22-4.39 8.22-4.39-5.41-4.39-8.22.39-8.56 4.39-8.56zm0-6.6c-8.9 0-14 6.39-14 15.12 0 8.33 5.13 14.95 14 14.95s14-6.62 14-14.95c0-8.73-5.1-15.12-14-15.12z"/><path id="_Compound_Path_4" data-name="&amp;lt;Compound Path&amp;gt;" class="cls-1" d="M178.73 47.2h-9V18h9z"/><path id="_Path_" data-name="&amp;lt;Path&amp;gt;" class="cls-1" d="M113.95 17.98h-7.67v11.36l7.67-7.68v-3.68z"/><path id="_Path_2" data-name="&amp;lt;Path&amp;gt;" class="cls-1" d="M205 40.04h-13.6V17.98h-9.02V47.2h15.53l7.09-7.16z"/><path id="_Path_3" data-name="&amp;lt;Path&amp;gt;" class="cls-1" d="M153.5 35.68h8.53v-6.44h-8.53V24.7h13.16v-6.72h-21.94V47.2h21.94v-6.99H153.5v-4.53z"/><path id="_Path_4" data-name="&amp;lt;Path&amp;gt;" class="cls-1" d="M65.17 32.59A32.59 32.59 0 1 0 23.7 63.94V51.29a20.71 20.71 0 1 1 14.81 1.16V38.51L26.66 26.66V77h11.85V64.63a32.59 32.59 0 0 0 26.66-32.04z"/><path id="_Path_5" data-name="&amp;lt;Path&amp;gt;" class="cls-1" d="M133.77 17.98v15.39l-9.24-15.39h-8.48V47.2h7.28V30.26l10.4 16.94h7.32V17.98h-7.28z"/><path id="_Path_6" data-name="&amp;lt;Path&amp;gt;" class="cls-1" d="M111.49 60.15h2.81v-2.12h-2.81v-1.49h4.33v-2.22h-7.22v9.61h7.22v-2.29h-4.33v-1.49z"/><path id="_Path_7" data-name="&amp;lt;Path&amp;gt;" class="cls-1" d="M176.34 60.15h2.81v-2.12h-2.81v-1.49h4.33v-2.22h-7.21v9.61h7.21v-2.29h-4.33v-1.49z"/><path id="_Compound_Path_5" data-name="&amp;lt;Compound Path&amp;gt;" class="cls-1" d="M88.66 63.94h-2.75v-6.87l-1.75 6.87h-1.9l-1.81-6.87v6.87h-2.24v-9.62h3.85l1.37 5.1 1.32-5.1h3.88z"/><path id="_Compound_Path_6" data-name="&amp;lt;Compound Path&amp;gt;" class="cls-1" d="M94.91 62h-2.56l-.59 1.89h-2.4l3-9.61h3.11l3 9.61h-3zm-.5-2.1l-.79-2.79-.78 2.79z"/><path id="_Compound_Path_7" data-name="&amp;lt;Compound Path&amp;gt;" class="cls-1" d="M99.23 54.32h3.54a4.57 4.57 0 0 1 3.53 1.18 4.91 4.91 0 0 1 1.47 3.64 5.07 5.07 0 0 1-1.33 3.49 4.51 4.51 0 0 1-3.47 1.3h-3.74zm3.38 7.4a1.79 1.79 0 0 0 1-.17 1.7 1.7 0 0 0 .63-.63 3.88 3.88 0 0 0-.14-3.87c-.46-.57-.91-.55-1.58-.55h-.34v5.21z"/><path id="_Compound_Path_8" data-name="&amp;lt;Compound Path&amp;gt;" class="cls-1" d="M124 63.94h-2.8v-7.3h-2v-2.32h6.8v2.31h-2z"/><path id="_Compound_Path_9" data-name="&amp;lt;Compound Path&amp;gt;" class="cls-1" d="M135.59 59.16c0 2.73-1.68 4.92-4.6 4.92s-4.6-2.19-4.6-4.92 1.67-5 4.6-5 4.6 2.13 4.6 5zm-6 0c0 .92.1 2.7 1.44 2.7s1.44-1.78 1.44-2.7-.14-2.82-1.44-2.82-1.48 1.89-1.48 2.83z"/><path id="_Compound_Path_10" data-name="&amp;lt;Compound Path&amp;gt;" class="cls-1" d="M141.67 63.94h-3v-9.62h3z"/><path id="_Compound_Path_11" data-name="&amp;lt;Compound Path&amp;gt;" class="cls-1" d="M153.58 63.94h-2.75v-6.87l-1.75 6.87h-1.88l-1.81-6.87v6.87h-2.21v-9.62H147l1.37 5.1 1.32-5.1h3.88z"/><path id="_Compound_Path_12" data-name="&amp;lt;Compound Path&amp;gt;" class="cls-1" d="M158 63.94h-3v-9.62h4a5.67 5.67 0 0 1 2.82.5 2.91 2.91 0 0 1 1.43 2.52 3 3 0 0 1-1.07 2.35 4 4 0 0 1-2.62.74H158zm.77-5.55c.67 0 1.49 0 1.49-.94s-.73-.92-1.4-.92H158v1.86z"/><path id="_Compound_Path_13" data-name="&amp;lt;Compound Path&amp;gt;" class="cls-1" d="M169.34 63.94l-1.4-3.67H167v3.67h-3v-9.62h4.89a4.48 4.48 0 0 1 2.48.59 2.61 2.61 0 0 1 1.18 2.3 2.54 2.54 0 0 1-1.7 2.54l1.74 4.19zm-1.25-5.73c.64 0 1.41-.1 1.41-.92a.88.88 0 0 0-.46-.78 1.89 1.89 0 0 0-.84-.13H167v1.82z"/><path id="_Path_8" data-name="&amp;lt;Path&amp;gt;" class="cls-1" d="M188.08 58.49a10.2 10.2 0 0 0-2.69-.87c-.36-.1-1.06-.22-1-.73s.58-.59 1-.58a3.17 3.17 0 0 1 2.27 1.12l1.6-1.55a4.93 4.93 0 0 0-3.65-1.69 4.86 4.86 0 0 0-2.79.62 3 3 0 0 0-1.32 2.36c-.09 2.28 2 2.85 3.83 3.27.43.1 1.17.24 1.15.83s-.78.56-1.16.55a2.61 2.61 0 0 1-2.1-1.14l-1.88 1.84a4.64 4.64 0 0 0 3.66 1.55c2 0 4.32-.76 4.41-3.07a2.68 2.68 0 0 0-1.33-2.51z"/><path id="_Path_9" data-name="&amp;lt;Path&amp;gt;" class="cls-1" d="M196.55 58.49a10.2 10.2 0 0 0-2.69-.87c-.36-.1-1.06-.22-1-.73s.58-.59 1-.58a3.17 3.17 0 0 1 2.27 1.12l1.6-1.55a4.93 4.93 0 0 0-3.73-1.69 4.86 4.86 0 0 0-2.79.62 3 3 0 0 0-1.32 2.36c-.09 2.28 2 2.85 3.83 3.27.43.1 1.17.24 1.15.83s-.78.56-1.16.55a2.61 2.61 0 0 1-2.1-1.14l-1.88 1.84a4.64 4.64 0 0 0 3.74 1.55c2 0 4.32-.76 4.41-3.07a2.68 2.68 0 0 0-1.33-2.51z"/></g></g></g></svg>