<svg xmlns="http://www.w3.org/2000/svg" viewBox="0 0 42.31 50"><defs><style>.cls-1{fill:#489fdf}</style></defs><title>logo-simple</title><g id="Layer_2" data-name="Layer 2"><g id="Art"><g id="Top_Nav_Bar_2" data-name="Top Nav Bar 2"><g id="_Group_" data-name="&amp;lt;Group&amp;gt;"><path id="_Compound_Path_" data-name="&amp;lt;Compound Path&amp;gt;" class="cls-1" d="M27.56 48.14h-.63v-.23h1.54v.23h-.64V50h-.27z"/><path id="_Compound_Path_2" data-name="&amp;lt;Compound Path&amp;gt;" class="cls-1" d="M30.45 49.09v-.9c-.07.24-.16.51-.26.79l-.37 1h-.2l-.34-1c-.1-.29-.18-.56-.24-.81v.92l-.14.91h-.26l.14-2.09h.34l.36 1c.09.26.16.48.21.7.05-.21.13-.44.22-.7l.37-1h.34l.15 2.09h-.26z"/><path id="_Path_" data-name="&amp;lt;Path&amp;gt;" class="cls-1" d="M42.31 21.15A21.15 21.15 0 1 0 15.38 41.5v-8.2A13.45 13.45 0 1 1 25 34v-9l-7.69-7.69V50H25v-8a21.16 21.16 0 0 0 17.31-20.85z"/></g></g></g></g></svg>