<svg xmlns="http://www.w3.org/2000/svg" viewBox="0 0 17.86 17.86"><defs><style>.cls-1{fill:#888b8d;}</style></defs><title>search</title><g id="Layer_2" data-name="Layer 2"><g id="Layer_1-2" data-name="Layer 1"><g id="_Group_" data-name="&lt;Group&gt;"><path id="_Compound_Path_" data-name="&lt;Compound Path&gt;" class="cls-1" d="M17.86,6.62a6.63,6.63,0,0,1-6.62,6.62,6.53,6.53,0,0,1-2.46-.49L3.67,17.86,0,14.19l5.1-5.1A6.62,6.62,0,1,1,17.86,6.62Zm-11,4.91L3.67,14.71l-.51-.51L6.33,11A6.89,6.89,0,0,0,6.84,11.53Zm8.79-4.91A4.39,4.39,0,1,0,11.24,11,4.4,4.4,0,0,0,15.63,6.62Z"/></g></g></g></svg>