<svg xmlns="http://www.w3.org/2000/svg" viewBox="0 0 24 24"><defs><style>.cls-1{fill:#a5c7e9;}</style></defs><title>share</title><g id="Layer_2" data-name="Layer 2"><g id="Layer_1-2" data-name="Layer 1"><g id="_Group_" data-name="&lt;Group&gt;"><path id="_Compound_Path_" data-name="&lt;Compound Path&gt;" class="cls-1" d="M24,21a3,3,0,1,1-6,0,2.93,2.93,0,0,1,.22-1.07l-4.54-3.24A4.5,4.5,0,0,1,6,13.5a4.44,4.44,0,0,1,.07-.69l-3.59-1.2a1.48,1.48,0,0,1-1,.38,1.5,1.5,0,0,1,0-3,1.48,1.48,0,0,1,1.44,1.19l3.61,1.21A4.45,4.45,0,0,1,13.1,9.84l5.35-5.35A2.92,2.92,0,0,1,18,3a3,3,0,1,1,3,3,2.92,2.92,0,0,1-1.49-.45L14.16,10.9a4.41,4.41,0,0,1,.37,4.56l4.57,3.26A3,3,0,0,1,21,18,3,3,0,0,1,24,21Z"/></g></g></g></svg>